<?xml version="1.0" encoding="UTF-8"?>
<svg id="Layer_1" data-name="Layer 1" xmlns="http://www.w3.org/2000/svg" viewBox="0 0 751.98 195.72">
  <defs>
    <style>
      .cls-1 {
        fill: #64076a;
      }

      .cls-2 {
        fill: #660b6d;
      }

      .cls-3 {
        fill: #610368;
      }

      .cls-4 {
        fill: #63066a;
      }

      .cls-5 {
        fill: #6e1874;
      }
    </style>
  </defs>
  <path class="cls-4" d="M74.58,2.92c53-13.85,109.92,23.11,118.91,76.9,7.41,44.33-12.29,85.26-52.2,105.3C82.51,214.64,14.05,179.45,1.92,116.97-7.33,69.28,17.44,24.81,62.26,6.8c3.87-1.56,7.97-2.56,12.32-3.88M34.14,35.73C8.22,61.7,1.56,100.43,17.06,135.14c20.99,47.03,81.44,66.22,125.15,39.18,32.45-20.08,47.17-49.52,43.23-87.77-4.15-40.32-39.85-74.66-80.18-77.21-27.35-1.73-51.06,6.55-71.11,26.39Z"/>
  <path class="cls-1" d="M520.69,104.18c-8.14-10.58-16.07-20.91-24.72-32.17v57.5h-9.06V54.59c4.49-1.26,7.68-.03,10.64,3.92,12.03,16.08,24.37,31.91,36.62,47.82,1.03,1.34,2.17,2.6,3.26,3.89.37-.13.73-.25,1.1-.38v-55.47h8.98v75.05c-4.17,1.13-7.45.39-10.26-3.56-5.21-7.32-10.87-14.32-16.55-21.7Z"/>
  <path class="cls-4" d="M265.71,91.65c3.36,8.46,6.58,16.6,9.79,24.67,7.36-18.57,14.67-37.02,21.99-55.46q2.67-6.73,10.1-6.64c.89.01,1.78.09,3.12.16-1.31,3.25-2.51,6.27-3.74,9.28-8.44,20.78-16.96,41.53-25.24,62.37-1.21,3.05-2.73,4.08-5.89,3.88-2.88-.18-5.11.03-6.54-3.59-9.46-23.9-19.24-47.67-29.17-72.11,1.99,0,3.57.17,5.09-.03,4.08-.55,6.25,1.14,7.7,5.01,4.03,10.78,8.42,21.43,12.79,32.46Z"/>
  <path class="cls-4" d="M433.71,127.1c-10.15,5.23-20.07,5.38-29.19-1.02-9.38-6.59-11.23-16.69-9.89-27.28,2.19-17.3,16.06-26.7,32.61-21.84,4.46,1.31,8.99,4.38,12.11,7.88,8.79,9.84,8.59,33.46-5.64,42.27M405.17,93.91c-1.56,6.66-1.87,13.32.5,19.86,2.35,6.49,7.05,9.65,14.05,9.69,6.99.03,12.35-3.01,13.9-9.67,1.31-5.66,1.58-11.81.96-17.6-.86-8.01-5.88-12.34-13.08-13.02-7.62-.72-12.88,2.58-16.32,10.75Z"/>
  <path class="cls-4" d="M738.2,77.31c9.96,4.03,13.35,11.82,13.78,21.52.14,3.12-1.2,4.11-4.29,4.07-11.07-.15-22.15-.06-33.53-.06.31,7.46,1.52,14.21,8.18,18.23,6.73,4.06,13.51,2.71,20.06-.84q5.1-2.77,8.28,2.03c-5.63,8.32-22.18,11.17-32.78,5.66-11.34-5.9-16.52-23.03-11.16-36.84,4.75-12.24,16.94-17.68,31.46-13.76M718.67,87.57c-1.57,3.05-3.13,6.1-4.97,9.67h29.75c-.21-5.64-1.96-10.25-7.17-12.63-6.13-2.79-11.96-1.98-17.61,2.95Z"/>
  <path class="cls-2" d="M565.46,76.72c2.66-.01,4.9-.01,7.75-.01,0,5.65,0,11.14,0,16.62,0,5.85-.07,11.7.03,17.54.18,10.24,7,14.97,16.6,11.58,6.58-2.32,8.81-5.5,8.81-12.56,0-10.91,0-21.82,0-32.96h9.37v52.49q-7.49.99-8.88-6.35c-1.18.89-2.17,1.6-3.12,2.38-4.74,3.87-10.12,5.68-16.25,5.23-7.74-.56-14.4-5.24-15.04-13.02-1.09-13.25-.75-26.62-.94-39.95,0-.33.82-.67,1.67-1.01Z"/>
  <path class="cls-1" d="M681.66,123.43c3.82-1.76,5.65-4.5,5.42-8.35-.24-3.96-3.38-5.44-6.47-6.66-3.89-1.53-7.96-2.6-11.83-4.18-5.33-2.18-9.06-5.76-9.24-12.02-.19-6.56,2.82-11.17,8.52-14.1,8.51-4.37,19.62-2.64,26.61,4.07-2.29,5.49-2.31,5.5-7.62,3.02-4.36-2.04-9.02-3.24-13.4-.98-2.18,1.12-4.51,3.9-4.77,6.16-.21,1.88,2.06,4.91,4.03,5.97,3.9,2.11,8.36,3.16,12.55,4.75,7.46,2.82,10.53,6.63,10.48,12.89-.05,7.14-3.68,12.54-10.66,15.05-9.56,3.43-18.49,1.87-26.74-3.87,2.01-6.03,3.04-6.46,8.15-3.49,4.63,2.7,9.46,3.62,14.99,1.75Z"/>
  <path class="cls-4" d="M361.89,112.53c.73,2.32,1.35,4.31,1.98,6.3,4.6-11.6,9.15-23.11,13.73-34.61q3.12-7.84,11.95-7.3c-.34,1.12-.58,2.21-.99,3.22-6.27,15.36-12.7,30.65-18.75,46.09-1.28,3.25-3.12,3.59-6.04,3.7-3,.12-4.46-.78-5.6-3.65-6.51-16.36-13.25-32.63-19.93-48.99,8.78-1.67,9.22-1.44,12.37,6.53,3.73,9.45,7.45,18.91,11.27,28.7Z"/>
  <path class="cls-3" d="M632.66,129.17c-2.95.5-5.76.63-8.87.76v-53.5c2.47.46,5.67.15,7.13,1.6,1.44,1.43,1.11,4.64,1.67,7.69,1.37-1.71,2.35-2.97,3.36-4.2,3.01-3.7,6.85-5.71,11.67-5.69,5.13.03,6.26,1.43,5.6,6.41-.35,2.67-1.33,3.39-4.15,2.95-9.4-1.44-16.18,4.71-16.22,14.4-.04,9.73-.03,19.46-.18,29.57Z"/>
  <path class="cls-3" d="M319.38,90.23v-13.24h9.06v52.64h-9.06v-39.4Z"/>
  <path class="cls-3" d="M321.31,53.96c4.47-1.44,7.47.15,8.89,4.02,1.31,3.55-.12,6.49-3.55,8.15-3.36,1.62-6.13.49-8.16-2.42-2.15-3.1-1.2-6.48,2.82-9.74Z"/>
  <path class="cls-5" d="M100.17,76.73c0-6.58,0-12.71,0-19.16,1.5-.11,2.76-.21,4.14-.32.15.83.35,1.39.35,1.96.01,30.73.04,61.46-.07,92.19,0,1.46-1.24,2.92-1.91,4.38-.84-1.47-2.4-2.93-2.4-4.4-.15-24.73-.11-49.47-.11-74.65Z"/>
  <path class="cls-2" d="M91.11,135c5.24,4.17,6.95,9.29,5.05,15.34-.36,1.15-2.14,1.85-3.27,2.76-.57-1.35-1.86-2.86-1.59-4.01,1.2-5.01-.58-8.28-4.83-10.87-8.26-5.05-8.74-10.62-1.69-17.25,1.74-1.64,3.73-3.04,5.34-4.79,2.97-3.24,2.79-5.54-.73-8.22-2.48-1.9-5.24-3.43-7.88-5.13-1.13-.73-2.58-1.22-3.32-2.24-1.92-2.64-3.52-5.51-5.25-8.28,2.92-1.55,5.74-3.35,8.81-4.49.97-.36,2.6,1.07,3.93,1.68-.77,1.11-1.32,2.85-2.35,3.2-4.2,1.46-2.74,3.15-.37,4.8,3.19,2.21,6.65,4.05,9.77,6.35,6.03,4.44,6.53,9.69,1.63,15.25-1.38,1.57-2.9,3.02-4.46,4.42-6.32,5.68-6.23,6.97,1.21,11.48Z"/>
  <path class="cls-2" d="M129.14,89.69c4.14,2.14,3.77,4.95,1.18,7.37-3.03,2.83-6.54,5.16-9.89,7.63-1.44,1.06-3.1,1.82-4.53,2.9-4.15,3.15-4.31,5.41-.58,9.18,2.1,2.12,4.63,3.84,6.6,6.07,4.77,5.41,4.27,10.43-1.85,14.3-4.92,3.11-8.17,6.4-6.23,12.75.25.81-1.38,2.19-2.14,3.31-.95-.77-2.32-1.36-2.77-2.35-2.26-4.98-.28-11.88,4.22-15.36.83-.64,1.76-1.13,2.64-1.7,5.09-3.35,5.17-5.01.54-9.18-2-1.8-4.07-3.56-5.84-5.58-4.84-5.5-4.39-10.48,1.45-14.97,2.72-2.09,5.83-3.65,8.65-5.6,1.48-1.03,2.71-2.4,4.55-4.07-2.06-.93-3.42-1.25-4.37-2.06-.77-.65-1.62-2.05-1.39-2.81.25-.84,1.77-1.94,2.59-1.83,2.33.31,4.59,1.18,7.17,2.01Z"/>
  <path class="cls-2" d="M68.96,67.64c5.21-2.36,10.01-4.79,14.96-6.86,5.63-2.36,7.1-1.64,9.63,3.87,1.24,2.7,2.73,5.3,3.63,8.1.29.9-.92,2.29-1.44,3.46-.47-.13-.93-.26-1.4-.38.25-2.02.5-4.03.75-6.09-3.08.94-3.45,1.24-3.29,6.34.13,4.12-1.65,4.99-5.33,4.06.81-3.05,3.47-5.84,1.3-9.81q-6.09,11.89-9.53,8.7c2.03-2.73,4.34-5.46,3.3-9.03-3.23,3.48-6.25,6.8-9.42,9.97-.19.19-1.62-.88-2.24-1.23,1.5-2.89,2.86-5.5,4.22-8.11-.48-.35-.97-.69-1.45-1.04-2.56,3.39-4.11,8.88-9.73,6.68-2.28-.9-3.92-3.43-6.42-5.74,4.97-1.14,8.53-1.96,12.44-2.87Z"/>
  <path class="cls-2" d="M143.26,69.5c1.55.12,2.73.2,3.91.28.3.35.6.71.9,1.06-2,1.87-3.7,4.59-6.07,5.44-5.39,1.93-7.14-3.03-9.73-7.61-1.75,5.08,1.58,6.93,3.17,9.55-3.42,4.31-5.29-.11-6.88-1.67-1.84-1.81-2.7-4.62-4.47-6.83-1.45,3.7.41,6.49,2.71,9.15-3.55,3.9-5.34,2.28-8.78-7.86-2.37,2.05-2.37,2.11.51,9.1-3.58,1.01-5.33.09-5.26-4.02.04-2.3-.95-4.63-1.48-6.94-.57.13-1.14.26-1.7.38.24,2.06.48,4.11.74,6.34-3.6-1.3-4.34-4.78-2.07-7.54,1.2-1.47,2.51-3.02,3.15-4.76,1.48-4.07,4.16-4.85,7.77-3.28,4.37,1.9,8.58,4.18,12.99,5.97,3.3,1.34,6.82,2.15,10.6,3.22Z"/>
  <path class="cls-1" d="M103.95,54.17c-3.91.5-6.81-.91-7.68-4.26-.55-2.12-.3-5.39,1.02-6.82,1.48-1.6,4.94-2.82,6.87-2.19,2.15.71,4.47,3.46,5.06,5.74.91,3.53-1.59,6.06-5.27,7.52Z"/>
</svg>