<svg xmlns="http://www.w3.org/2000/svg" version="1.1" xmlns:xlink="http://www.w3.org/1999/xlink" xmlns:svgjs="http://svgjs.dev/svgjs" width="1000" height="1000"><g clip-path="url(#SvgjsClipPath1062)"><rect width="1000" height="1000" fill="#ffffff"></rect><g transform="matrix(0.6993006993006993,0,0,0.6993006993006993,25.874125874125923,0)"><svg xmlns="http://www.w3.org/2000/svg" version="1.1" xmlns:xlink="http://www.w3.org/1999/xlink" xmlns:svgjs="http://svgjs.dev/svgjs" width="1356" height="1430"><svg width="1356" height="1430" viewBox="0 0 1356 1430" fill="none" xmlns="http://www.w3.org/2000/svg">
<g clip-path="url(#clip0_681_216)">
<g clip-path="url(#clip1_681_216)">
<path d="M524.173 30.0665C878.197 -69.8528 1258.41 196.791 1318.46 584.853C1367.95 904.667 1236.36 1199.95 969.775 1344.53C577.142 1557.5 119.85 1303.62 38.8255 852.867C-22.9617 508.813 142.494 187.989 441.879 58.0583C467.729 46.8039 495.116 39.5895 524.173 30.0665ZM254.045 266.771C80.9076 454.128 36.4208 733.542 139.956 983.953C280.163 1323.25 683.951 1461.69 975.921 1266.61C1192.68 1121.75 1291 909.356 1264.68 633.406C1236.96 342.522 998.498 94.7796 729.106 76.3829C546.416 63.902 388.04 123.637 254.112 266.771H254.045Z" fill="#63066A"></path>
<path d="M695.106 562.56C695.106 515.089 695.106 470.865 695.106 424.332C705.125 423.539 713.542 422.817 722.76 422.024C723.761 428.012 725.097 432.052 725.097 436.164C725.164 657.862 725.365 879.56 724.63 1101.26C724.63 1111.79 716.347 1122.32 711.872 1132.86C706.261 1122.25 695.84 1111.72 695.84 1101.11C694.838 922.702 695.106 744.218 695.106 562.56Z" fill="#6E1874"></path>
<path d="M634.587 982.943C669.589 1013.03 681.011 1049.96 668.32 1093.61C665.915 1101.91 654.025 1106.96 646.477 1113.52C642.67 1103.78 634.053 1092.89 635.857 1084.59C643.872 1048.45 631.982 1024.86 603.594 1006.17C548.419 969.74 545.213 929.556 592.305 881.725C603.928 869.893 617.22 859.793 627.975 847.168C647.813 823.793 646.611 807.2 623.098 787.865C606.533 774.158 588.097 763.12 570.462 750.856C562.914 745.589 553.229 742.054 548.286 734.695C535.461 715.649 524.773 694.944 513.217 674.96C532.722 663.778 551.559 650.792 572.065 642.568C578.545 639.97 589.433 650.287 598.317 654.688C593.173 662.696 589.499 675.249 582.619 677.774C554.565 688.307 564.317 700.499 580.148 712.403C601.456 728.347 624.568 741.621 645.409 758.214C685.687 790.246 689.027 828.122 656.296 868.234C647.078 879.56 636.925 890.021 626.505 900.121C584.289 941.099 584.89 950.406 634.587 982.943Z" fill="#660B6D"></path>
<path d="M888.616 656.059C916.27 671.497 913.799 691.77 896.499 709.229C876.259 729.645 852.813 746.455 830.436 764.274C820.818 771.922 809.729 777.405 800.177 785.196C772.457 807.921 771.388 824.226 796.303 851.424C810.33 866.719 827.23 879.127 840.389 895.216C872.251 934.245 868.911 970.462 828.032 998.381C795.167 1020.82 773.458 1044.55 786.417 1090.36C788.087 1096.21 777.199 1106.16 772.123 1114.24C765.777 1108.69 756.626 1104.43 753.62 1097.29C738.524 1061.36 751.749 1011.58 781.808 986.478C787.352 981.86 793.564 978.325 799.443 974.213C833.442 950.045 833.977 938.069 803.05 907.985C789.69 894.999 775.863 882.302 764.04 867.729C731.71 828.05 734.716 792.122 773.726 759.729C791.894 744.651 812.668 733.397 831.505 719.329C841.391 711.898 849.607 702.014 861.898 689.966C848.137 683.257 839.053 680.948 832.707 675.105C827.564 670.415 821.886 660.315 823.423 654.832C825.093 648.772 835.246 640.836 840.723 641.63C856.287 643.866 871.383 650.143 888.616 656.131V656.059Z" fill="#660B6D"></path>
<path d="M486.632 496.981C521.433 479.955 553.496 462.424 586.56 447.491C624.167 430.465 633.986 435.659 650.886 475.41C659.169 494.889 669.122 513.646 675.133 533.847C677.07 540.34 668.988 550.368 665.514 558.809C662.375 557.871 659.302 556.933 656.163 556.067C657.833 541.494 659.503 526.993 661.173 512.131C640.599 518.913 638.128 521.077 639.196 557.871C640.065 587.594 628.175 593.87 603.594 587.161C609.004 565.157 626.772 545.029 612.277 516.388C585.158 573.574 563.939 594.496 548.62 579.153C562.18 559.458 577.61 539.763 570.663 514.007C549.087 539.113 528.915 563.065 507.74 585.935C506.471 587.305 496.919 579.586 492.777 577.061C502.797 556.211 511.881 537.382 520.966 518.552C517.76 516.027 514.486 513.574 511.28 511.049C494.18 535.506 483.827 575.113 446.287 559.241C431.057 552.748 420.102 534.496 403.403 517.831C436.601 509.606 460.381 503.691 486.499 497.126L486.632 496.981Z" fill="#660B6D"></path>
<path d="M982.934 510.4C993.287 511.266 1001.17 511.843 1009.05 512.42C1011.06 514.945 1013.06 517.542 1015.06 520.067C1001.7 533.558 990.348 553.181 974.517 559.314C938.514 573.237 926.824 537.454 909.524 504.412C897.834 541.061 920.078 554.408 930.699 573.309C907.854 604.403 895.363 572.516 884.742 561.261C872.452 548.203 866.707 527.931 854.884 511.987C845.198 538.68 857.623 558.809 872.986 577.999C849.273 606.135 837.316 594.448 814.338 521.294C798.507 536.083 798.507 536.516 817.745 586.945C793.831 594.231 782.142 587.594 782.61 557.943C782.877 541.35 776.264 524.54 772.724 507.875C768.916 508.813 765.109 509.751 761.368 510.616C762.971 525.478 764.574 540.268 766.311 556.356C742.264 546.977 737.321 521.871 752.484 501.959C760.5 491.354 769.25 480.172 773.525 467.619C783.411 438.256 801.313 432.629 825.426 443.955C854.617 457.663 882.738 474.112 912.196 487.025C934.239 496.693 957.751 502.536 983.001 510.256L982.934 510.4Z" fill="#660B6D"></path>
<path d="M720.355 399.803C694.237 403.411 674.866 393.238 669.055 369.07C665.381 353.776 667.051 330.185 675.868 319.868C685.754 308.325 708.866 299.523 721.757 304.068C736.119 309.191 751.616 329.03 755.557 345.479C761.635 370.946 744.936 389.198 720.355 399.731V399.803Z" fill="#64076A"></path>
</g>
</g>
<defs>
<clipPath id="clip0_681_216">
<rect width="1356" height="1430" fill="white"></rect>
</clipPath>
<clipPath id="clip1_681_216">
<rect width="5023" height="1412" fill="white" transform="translate(26 9)"></rect>
</clipPath>
<clipPath id="SvgjsClipPath1062"><rect width="1000" height="1000" x="0" y="0" rx="500" ry="500"></rect></clipPath></defs>
</svg></svg></g></g></svg>